<?xml version="1.0" encoding="UTF-8" standalone="no"?>
<!-- Creator: CorelDRAW 2021.5 -->

<svg
   xml:space="preserve"
   width="80"
   height="80"
   version="1.1"
   style="clip-rule:evenodd;fill-rule:evenodd;image-rendering:optimizeQuality;shape-rendering:geometricPrecision;text-rendering:geometricPrecision"
   viewBox="0 0 80 80"
   id="svg17"
   xmlns="http://www.w3.org/2000/svg"
   xmlns:svg="http://www.w3.org/2000/svg">
 <defs
   id="defs4"><style
     type="text/css"
     id="style2">
   <![CDATA[
    .fil2 {fill:#2A579A}
    .fil0 {fill:#F58634;fill-rule:nonzero}
    .fil1 {fill:#2A579A;fill-rule:nonzero}
   ]]>
  </style></defs>
 <g
   id="Layer_x0020_1">
  <metadata
   id="CorelCorpID_0Corel-Layer" />
  <g
   id="_3186398213968"
   transform="matrix(2.7857964,0,0,2.7857964,-1.788095,-1.7874431)">
   <path
   class="fil0"
   d="M 5.73,22.77 C 22.47,13.33 15.63,6.11 9.69,8.39 7.77,9.13 7.09,8.57 7.21,7.74 7.45,6.1 10.55,4.19 13.06,3.73 c 6.4,-1.17 9.33,5.56 5.58,11.67 -2.67,4.34 -7.98,5.56 -12.91,7.37 z"
   id="path7" />
   <path
   class="fil1"
   d="M 9.46,4.25 C 3.02,7.39 5.92,9.87 8.6,11.61 c 1.7,1.11 2.49,2.37 2.58,3.66 0.4,5.56 -6.99,4.88 -10.01,11.94 C -0.19,23.64 7.82,18.48 3.38,14.89 -0.89,11.43 0.27,4.07 9.46,4.25 Z"
   id="path9" />
   <path
   class="fil2"
   d="M 5.55,3.78 C 13.37,0.73 19.14,0.89 22.76,2.82 24.74,3.88 23.58,3.27 25.04,2.07 25.97,1.3 27.37,1.26 29,1.98 26.13,3.71 26.4,6.47 26.51,7.14 27.03,10.61 25.86,14.62 22.3,18.03 17.94,22.2 9.11,21.88 1.31,28.58 5.42,23.54 12.94,21.58 18.35,18.65 22.49,16.4 23.13,12.4 23.22,9.77 23.44,3.37 16.42,0.78 5.55,3.78 Z M 25.88,2.44 c 0.15,-0.09 0.31,-0.05 0.34,0.08 0.03,0.13 -0.07,0.3 -0.23,0.38 -0.15,0.09 -0.31,0.05 -0.34,-0.08 -0.03,-0.13 0.07,-0.3 0.23,-0.38 z"
   id="path11" />
   <path
   class="fil2"
   d="M 29,1.98 C 27.77,3.18 27.96,4.77 28.4,6.56 30.84,16.57 21.82,21.61 14.68,22.18 21.03,20.77 29.75,16.36 27.78,7.15 27.33,5.06 27.34,3.21 29,1.98 Z"
   id="path13" />
  </g>
 </g>
</svg>
