<?xml version="1.0" encoding="UTF-8"?>
<!DOCTYPE svg PUBLIC "-//W3C//DTD SVG 1.1//EN" "http://www.w3.org/Graphics/SVG/1.1/DTD/svg11.dtd">
<!-- Creator: CorelDRAW 2021.5 -->
<svg xmlns="http://www.w3.org/2000/svg" xml:space="preserve" width="30px" height="30px" version="1.1" style="shape-rendering:geometricPrecision; text-rendering:geometricPrecision; image-rendering:optimizeQuality; fill-rule:evenodd; clip-rule:evenodd"
viewBox="0 0 30 30"
 xmlns:xlink="http://www.w3.org/1999/xlink"
 xmlns:xodm="http://www.corel.com/coreldraw/odm/2003">
 <defs>
  <style type="text/css">
   <![CDATA[
    .fil2 {fill:#2A579A}
    .fil0 {fill:#F58634;fill-rule:nonzero}
    .fil1 {fill:#2A579A;fill-rule:nonzero}
   ]]>
  </style>
 </defs>
 <g id="Layer_x0020_1">
  <metadata id="CorelCorpID_0Corel-Layer"/>
  <g id="_3186398213968">
   <path class="fil0" d="M5.73 22.77c16.74,-9.44 9.9,-16.66 3.96,-14.38 -1.92,0.74 -2.6,0.18 -2.48,-0.65 0.24,-1.64 3.34,-3.55 5.85,-4.01 6.4,-1.17 9.33,5.56 5.58,11.67 -2.67,4.34 -7.98,5.56 -12.91,7.37z"/>
   <path class="fil1" d="M9.46 4.25c-6.44,3.14 -3.54,5.62 -0.86,7.36 1.7,1.11 2.49,2.37 2.58,3.66 0.4,5.56 -6.99,4.88 -10.01,11.94 -1.36,-3.57 6.65,-8.73 2.21,-12.32 -4.27,-3.46 -3.11,-10.82 6.08,-10.64z"/>
   <path class="fil2" d="M5.55 3.78c7.82,-3.05 13.59,-2.89 17.21,-0.96 1.98,1.06 0.82,0.45 2.28,-0.75 0.93,-0.77 2.33,-0.81 3.96,-0.09 -2.87,1.73 -2.6,4.49 -2.49,5.16 0.52,3.47 -0.65,7.48 -4.21,10.89 -4.36,4.17 -13.19,3.85 -20.99,10.55 4.11,-5.04 11.63,-7 17.04,-9.93 4.14,-2.25 4.78,-6.25 4.87,-8.88 0.22,-6.4 -6.8,-8.99 -17.67,-5.99zm20.33 -1.34c0.15,-0.09 0.31,-0.05 0.34,0.08 0.03,0.13 -0.07,0.3 -0.23,0.38 -0.15,0.09 -0.31,0.05 -0.34,-0.08 -0.03,-0.13 0.07,-0.3 0.23,-0.38z"/>
   <path class="fil2" d="M29 1.98c-1.23,1.2 -1.04,2.79 -0.6,4.58 2.44,10.01 -6.58,15.05 -13.72,15.62 6.35,-1.41 15.07,-5.82 13.1,-15.03 -0.45,-2.09 -0.44,-3.94 1.22,-5.17z"/>
  </g>
 </g>
</svg>
